<!-- <svg
  id="Capa_1"
  data-name="Capa 1"
  xmlns="http://www.w3.org/2000/svg"
  viewBox="0 0 33.02 29.91"
><defs><style
    >.cls-1{fill:#fff;}.cls-2{fill:#ed6857;}.cls-3{fill:#001739;}</style></defs><path
    class="cls-1"
    d="M89.9,70.34c-.41-.45-.73-.78-1.05-1.12a9,9,0,0,0-12.42-.49,8.83,8.83,0,0,0-.92,12.38c4.35,5,8.87,9.78,13.34,14.65a1.23,1.23,0,0,0,2.09,0c4.49-4.89,9-9.74,13.41-14.73a8.83,8.83,0,0,0-.94-12.3,9,9,0,0,0-12.35.36Z"
    transform="translate(-73.4 -66.46)"
  /><path
    class="cls-2"
    d="M89.9,70.34l1.16-1.22a9,9,0,0,1,12.35-.36,8.82,8.82,0,0,1,.94,12.3c-4.37,5-8.92,9.84-13.4,14.73a1.24,1.24,0,0,1-2.1,0c-4.46-4.88-9-9.7-13.34-14.66a8.85,8.85,0,0,1,.92-12.38,9,9,0,0,1,12.42.49C89.18,69.56,89.49,69.89,89.9,70.34Zm-.07,22.79c.13-.08.25-.17.37-.26,4.07-4.45,8.19-8.86,12.19-13.38a6.31,6.31,0,0,0-.7-8.9,6.43,6.43,0,0,0-8.87.33c-.6.61-1.15,1.26-1.74,1.88-.87.92-1.45.94-2.31,0-.59-.61-1.14-1.27-1.74-1.88a6.44,6.44,0,0,0-9.44,8.77h0c.7.8,1.43,1.58,2.15,2.37Z"
    transform="translate(-73.4 -66.46)"
  /><path
    class="cls-3"
    d="M89.83,93.72,79.25,82.13c-.76-.82-1.52-1.64-2.26-2.48a6.76,6.76,0,0,1,9.9-9.18c.63.64,1.2,1.33,1.82,2,.91,1,1.51.94,2.43,0,.61-.65,1.19-1.33,1.82-2a6.73,6.73,0,0,1,9.29-.35,6.6,6.6,0,0,1,.74,9.33c-4.19,4.75-8.51,9.37-12.78,14A3.62,3.62,0,0,1,89.83,93.72Z"
    transform="translate(-73.4 -66.46)"
  /></svg> -->
<svg class="heart" xmlns="http://www.w3.org/2000/svg" width="16" height="15" viewBox="0 0 16 15">
  <g id="heart" fill="none" stroke-miterlimit="10">
    <path d="M8,15,6.84,13.937C2.72,10.1,0,7.6,0,4.5A4.386,4.386,0,0,1,4.4,0,4.7,4.7,0,0,1,8,1.717,4.7,4.7,0,0,1,11.6,0,4.386,4.386,0,0,1,16,4.5c0,3.106-2.72,5.6-6.84,9.441Z" stroke="none"/>
    <path d="M 8 13.64373970031738 L 8.48186206817627 13.20225715637207 L 8.644049644470215 13.05103969573975 C 12.47146034240723 9.482660293579102 15 7.125249862670898 15 4.49590015411377 C 15 3.53331995010376 14.65030956268311 2.645900011062622 14.01533985137939 1.997089982032776 C 13.38607025146484 1.3541100025177 12.52828979492188 1 11.60000038146973 1 C 10.53046035766602 1 9.472579956054688 1.506360054016113 8.770179748535156 2.354510068893433 L 8.000020027160645 3.284480094909668 L 7.22983980178833 2.354520082473755 C 6.527400016784668 1.506360054016113 5.469510078430176 1 4.400000095367432 1 C 3.471709966659546 1 2.613929986953735 1.3541100025177 1.984660029411316 1.997089982032776 C 1.349689960479736 2.645900011062622 1 3.53331995010376 1 4.49590015411377 C 1 7.125249862670898 3.528589963912964 9.482709884643555 7.356080055236816 13.05115985870361 L 7.518139362335205 13.2022590637207 L 8 13.64373970031738 M 8 15 L 6.839849948883057 13.9370698928833 C 2.719919919967651 10.09539031982422 0 7.601950168609619 0 4.49590015411377 C 0 1.9617600440979 1.919919967651367 -8.881784197001252e-16 4.400000095367432 -8.881784197001252e-16 C 5.799960136413574 -8.881784197001252e-16 7.119880199432373 0.653980016708374 8 1.71668004989624 C 8.880080223083496 0.653980016708374 10.19995975494385 -8.881784197001252e-16 11.60000038146973 -8.881784197001252e-16 C 14.08008003234863 -8.881784197001252e-16 16 1.9617600440979 16 4.49590015411377 C 16 7.601990222930908 13.28003978729248 10.09543037414551 9.160149574279785 13.9370698928833 L 8 15 Z" stroke="none" fill="#66a6d9"/>
  </g>
</svg>